<svg width="22" height="22" viewBox="0 0 22 22" fill="none" xmlns="http://www.w3.org/2000/svg">
    <path d="M2.75 17.417V4.583c0-1.012.82-1.833 1.833-1.833h10.241c.486 0 .953.193 1.296.537l2.593 2.593c.344.344.537.81.537 1.296v10.24c0 1.013-.82 1.834-1.833 1.834H4.583a1.833 1.833 0 0 1-1.833-1.833z" stroke="#fff" stroke-width="2"/>
    <path d="M7.883 8.25h6.234a.55.55 0 0 0 .55-.55V3.3a.55.55 0 0 0-.55-.55H7.883a.55.55 0 0 0-.55.55v4.4c0 .304.247.55.55.55zM5.5 12.467v6.783h11v-6.783a.55.55 0 0 0-.55-.55h-9.9a.55.55 0 0 0-.55.55z" stroke="#fff" stroke-width="2"/>
</svg>
